<svg width="603" height="495" viewBox="0 0 603 495" fill="none" xmlns="http://www.w3.org/2000/svg">
<ellipse rx="233.5" ry="219" transform="matrix(-1 0 0 1 286.5 248)" fill="#FFE5D2"/>
<path fill-rule="evenodd" clip-rule="evenodd" d="M480.408 343.694C480.508 343.635 481.134 344.465 482.061 346.099C482.991 347.727 484.148 350.2 485.224 353.391C487.428 359.752 488.812 369.142 487.992 379.382C487.178 389.621 484.819 398.609 482.999 405.007C481.137 411.407 479.767 415.292 479.531 415.227C479.27 415.154 480.195 411.135 481.723 404.672C483.211 398.21 485.335 389.27 486.131 379.241C486.931 369.214 485.793 360.089 483.963 353.78C482.187 347.439 480.115 343.846 480.408 343.694Z" fill="white"/>
<path fill-rule="evenodd" clip-rule="evenodd" d="M486.696 292.45C486.813 292.398 487.57 293.789 488.835 296.355C490.098 298.921 491.873 302.66 493.973 307.326C498.138 316.657 503.744 329.719 507.81 344.884C509.809 352.47 511.172 359.844 511.862 366.617C512.557 373.388 512.628 379.54 512.28 384.674C511.943 389.811 511.297 393.933 510.675 396.736C510.059 399.545 509.572 401.057 509.462 401.033C509.117 400.966 510.639 394.784 510.963 384.613C511.365 374.463 510.036 360.361 506.007 345.366C501.987 330.366 496.61 317.297 492.761 307.85C490.823 303.123 489.256 299.297 488.171 296.652C487.111 293.996 486.578 292.503 486.696 292.45Z" fill="white"/>
<path fill-rule="evenodd" clip-rule="evenodd" d="M253.991 352.595C254.207 352.828 252.091 354.853 249.345 358.612C248.663 359.556 247.923 360.589 247.23 361.769C246.472 362.906 245.814 364.21 245.08 365.556C243.717 368.3 242.423 371.419 241.424 374.815C240.47 378.223 239.913 381.555 239.613 384.607C239.522 386.137 239.389 387.594 239.427 388.959C239.389 390.329 239.467 391.6 239.543 392.764C239.876 397.412 240.596 400.256 240.289 400.339C240.103 400.403 238.919 397.656 238.231 392.899C238.067 391.711 237.91 390.405 237.88 388.992C237.774 387.58 237.85 386.071 237.897 384.48C238.112 381.311 238.639 377.835 239.632 374.297C240.667 370.771 242.061 367.547 243.562 364.748C244.363 363.374 245.098 362.055 245.937 360.918C246.71 359.736 247.537 358.714 248.306 357.796C251.409 354.134 253.869 352.442 253.991 352.595Z" fill="white"/>
<path fill-rule="evenodd" clip-rule="evenodd" d="M258.957 369.001C259.114 369.252 257.935 370.156 256.395 371.887C255.615 372.741 254.793 373.849 253.985 375.133C253.211 376.438 252.47 377.936 251.887 379.587C251.33 381.247 250.995 382.885 250.803 384.393C250.65 385.903 250.616 387.282 250.705 388.439C250.855 390.753 251.228 392.196 250.95 392.297C250.75 392.381 249.911 391.061 249.398 388.615C249.13 387.395 249.02 385.902 249.089 384.247C249.198 382.599 249.513 380.79 250.123 378.977C250.757 377.171 251.621 375.554 252.548 374.187C253.509 372.841 254.514 371.734 255.472 370.94C257.379 369.329 258.851 368.809 258.957 369.001Z" fill="white"/>
<path fill-rule="evenodd" clip-rule="evenodd" d="M190.015 216.107C190.111 216.023 190.946 216.847 192.379 218.42C193.107 219.198 193.967 220.178 194.877 221.386C195.796 222.584 196.902 223.914 197.939 225.512C198.474 226.301 199.037 227.127 199.621 227.988C200.199 228.855 200.723 229.803 201.307 230.761C202.502 232.663 203.574 234.811 204.739 237.051C206.939 241.595 209.043 246.753 210.719 252.344C212.341 257.951 213.37 263.429 213.985 268.442C214.22 270.959 214.484 273.346 214.511 275.593C214.539 276.716 214.613 277.798 214.596 278.842C214.573 279.883 214.549 280.882 214.527 281.836C214.522 283.746 214.314 285.463 214.192 286.971C214.082 288.481 213.892 289.772 213.701 290.821C213.351 292.923 213.097 294.071 212.969 294.053C212.641 294.009 213.26 289.35 213.208 281.822C213.191 280.88 213.174 279.896 213.157 278.869C213.135 277.843 213.026 276.777 212.965 275.675C212.873 273.466 212.555 271.124 212.28 268.656C211.58 263.741 210.521 258.379 208.929 252.875C207.283 247.388 205.269 242.308 203.192 237.801C202.088 235.579 201.085 233.44 199.967 231.535C199.42 230.576 198.933 229.623 198.397 228.75C197.855 227.879 197.336 227.043 196.841 226.244C192.806 219.895 189.761 216.324 190.015 216.107Z" fill="white"/>
<path fill-rule="evenodd" clip-rule="evenodd" d="M211.144 224.879C211.303 224.737 213.446 226.748 216.172 230.625C217.544 232.554 218.989 234.987 220.396 237.791C221.762 240.614 223.066 243.821 224.106 247.295C225.115 250.78 225.756 254.184 226.139 257.299C226.476 260.42 226.581 263.249 226.473 265.617C226.284 270.357 225.574 273.214 225.365 273.181C225.065 273.145 225.305 270.252 225.153 265.616C225.092 263.3 224.854 260.548 224.435 257.523C223.969 254.504 223.295 251.212 222.317 247.827C221.306 244.452 220.087 241.32 218.843 238.532C217.557 235.762 216.267 233.324 215.064 231.344C212.68 227.371 210.913 225.074 211.144 224.879Z" fill="white"/>
<path fill-rule="evenodd" clip-rule="evenodd" d="M137.156 378.076L135.532 374.749L90.312 409.414L110.04 441.48L155.053 403.401L137.156 378.076Z" fill="#FF7B5B"/>
<path fill-rule="evenodd" clip-rule="evenodd" d="M92.207 410.155L109.538 440.226L110.646 439.73L95.2125 411.613L92.207 410.155Z" fill="#D7D4D4"/>
<path fill-rule="evenodd" clip-rule="evenodd" d="M136.263 377.417L92.207 410.155C92.207 410.155 92.3917 410.858 93.485 411.291C94.5796 411.725 95.2125 411.614 95.2125 411.614L141.529 379.809C141.529 379.809 138.859 379.186 137.891 378.461C136.921 377.734 136.263 377.417 136.263 377.417Z" fill="#F5F3F3"/>
<path fill-rule="evenodd" clip-rule="evenodd" d="M142.662 378.526L94.3854 410.879L110.065 440.694L112.591 444.822L160.869 408.973C160.869 408.973 155.784 401.358 152.731 396.761C149.678 392.163 143.685 381.321 143.359 380.626C143.031 379.931 142.662 378.526 142.662 378.526Z" fill="#FF7B5B"/>
<path fill-rule="evenodd" clip-rule="evenodd" d="M540.786 155.166L542.149 152.371L580.122 181.481L563.556 208.408L525.757 176.431L540.786 155.166Z" fill="#775298"/>
<path fill-rule="evenodd" clip-rule="evenodd" d="M578.531 182.103L563.979 207.354L563.047 206.939L576.008 183.328L578.531 182.103Z" fill="#D7D4D4"/>
<path fill-rule="evenodd" clip-rule="evenodd" d="M541.537 154.612L578.532 182.103C578.532 182.103 578.375 182.693 577.459 183.057C576.539 183.421 576.007 183.328 576.007 183.328L537.113 156.62C537.113 156.62 539.356 156.098 540.169 155.488C540.983 154.877 541.537 154.612 541.537 154.612Z" fill="#F5F3F3"/>
<path fill-rule="evenodd" clip-rule="evenodd" d="M536.163 155.544L576.702 182.711L563.537 207.748L561.415 211.214L520.873 181.11C520.873 181.11 525.144 174.715 527.707 170.854C530.272 166.994 535.304 157.889 535.577 157.306C535.851 156.724 536.163 155.544 536.163 155.544Z" fill="#775298"/>
<path fill-rule="evenodd" clip-rule="evenodd" d="M83.1692 102.772C83.1692 102.772 80.3022 104.763 81.735 108.082C83.1692 111.402 89.4545 121.248 97.9454 120.916C98.2931 120.903 87.2489 102.772 87.2489 102.772H83.1692Z" fill="#FF7B5B"/>
<path fill-rule="evenodd" clip-rule="evenodd" d="M70.1804 284.294C70.1804 284.294 59.5627 274.777 56.1633 276.482C52.0103 278.565 28.2393 301.933 29.1682 312.942C29.5499 317.451 34.7813 313.588 44.1033 303.886C53.4281 294.185 65.169 298.343 65.169 298.343L70.1804 284.294Z" fill="#775298"/>
<path fill-rule="evenodd" clip-rule="evenodd" d="M95.977 300.343L83.1592 292.628C83.1592 292.628 49.9344 323.88 55.1251 328.047C59.0623 331.207 61.3765 328.373 70.6999 318.671C80.0219 308.972 91.8334 314.549 91.8334 314.549L95.977 300.343Z" fill="#775298"/>
<path fill-rule="evenodd" clip-rule="evenodd" d="M174.276 197.526L176.68 231.771L123.322 217.825L174.276 197.526Z" fill="#F3A683"/>
<path fill-rule="evenodd" clip-rule="evenodd" d="M123.322 219.003C123.322 219.003 169.995 221.954 176.21 219.874C176.21 219.874 185.331 309.776 169.101 319.476C152.871 329.178 116.449 314.972 116.449 314.972L126.283 295.571L147.486 294.185V259.54L145.965 259.886L123.322 219.003Z" fill="#112129"/>
<path fill-rule="evenodd" clip-rule="evenodd" d="M64.8169 280.327C64.8169 280.327 53.0774 285.178 56.876 296.958C56.876 296.958 96.9497 328.485 116.449 321.209C127.374 317.133 139.109 286.035 147.319 259.466L176.21 219.874C176.21 219.874 162.584 220.558 158.039 220.54C149.351 220.507 123.323 219.003 123.323 219.003C123.323 219.003 109.727 290.375 104.882 292.107C100.038 293.837 64.8169 280.327 64.8169 280.327Z" fill="#22343D"/>
<path fill-rule="evenodd" clip-rule="evenodd" d="M134.198 129.487C134.198 129.487 162.17 103.155 167.003 96.2247C171.837 89.2957 182.199 66.0831 194.972 56.3825L188.758 43.2167C188.758 43.2167 192.558 41.1387 194.972 46.6806C194.972 46.6806 203.949 28.6665 206.022 29.0112C208.096 29.3573 201.88 42.8706 201.88 42.8706C201.88 42.8706 210.515 30.397 212.931 30.7445C215.345 31.0906 206.715 44.766 206.715 44.766C206.715 44.766 216.382 33.5161 217.764 34.9019C219.145 36.2877 210.167 44.766 210.167 44.766C210.167 44.766 219.835 39.1969 220.871 41.0324C221.908 42.8706 211.203 47.7202 211.203 47.7202C211.203 47.7202 210.167 55.6889 203.607 59.1528C203.607 59.1528 190.617 94.3661 178.876 105.799L141.16 145.127L134.198 129.487Z" fill="#FFC6B2"/>
<path fill-rule="evenodd" clip-rule="evenodd" d="M100.809 143.134C100.809 143.134 74.3051 170.951 67.3543 175.735C60.4022 180.518 37.1717 190.698 27.3852 203.425L14.3216 197.065C14.3216 197.065 12.2151 200.856 17.7168 203.332C17.7168 203.332 -0.322903 212.172 0.00440056 214.255C0.328988 216.337 13.8544 210.227 13.8544 210.227C13.8544 210.227 1.34214 218.774 1.66537 221.201C1.9886 223.627 15.6973 215.095 15.6973 215.095C15.6973 215.095 4.39516 224.689 5.76414 226.087C7.13039 227.486 15.6661 218.56 15.6661 218.56C15.6661 218.56 10.0245 228.207 11.8471 229.263C13.667 230.319 18.601 219.625 18.601 219.625C18.601 219.625 26.5513 218.663 30.0675 212.112C30.0675 212.112 63.3099 198.841 74.8158 187.169L116.184 157.759L100.809 143.134Z" fill="#FFC6B2"/>
<path fill-rule="evenodd" clip-rule="evenodd" d="M110.745 132.047L97.3401 145.213L100.739 160.055C100.739 160.055 113.946 191.865 115.942 199.626C119.045 211.693 114.026 230.093 114.026 230.093C114.026 230.093 136.414 228.227 156.786 227.535C177.156 226.841 183.82 220.257 183.82 220.257C183.82 220.257 166.158 161.236 153.964 144.737C141.768 128.241 137.332 123.077 137.332 123.077L119.377 127.015L110.745 132.047Z" fill="white"/>
<path fill-rule="evenodd" clip-rule="evenodd" d="M150.085 142.792L164.051 133.838C164.051 133.838 166.185 124.245 149.342 112.93L129.591 125.347L150.085 142.792Z" fill="white"/>
<path fill-rule="evenodd" clip-rule="evenodd" d="M100.165 144.172C92.5076 145.249 78.5151 164.72 76.9546 164.683C76.9546 164.683 86.8022 180.807 94.6032 181.331C94.6032 181.331 128.932 140.123 100.165 144.172Z" fill="white"/>
<path fill-rule="evenodd" clip-rule="evenodd" d="M127.194 131.503C127.194 131.503 116.064 123.159 116.45 119.833C116.547 118.995 118.09 117.635 118.491 116.428C120.649 109.932 110.244 93.1948 103.852 89.667C98.8228 86.8926 101.027 86.6474 90.4432 92.9577C79.8595 99.2681 85.8895 110.18 90.6157 115.824C95.0839 121.159 100.201 123.444 104.805 123.83L111.351 138.418L127.194 131.503Z" fill="#FFC6B2"/>
<path fill-rule="evenodd" clip-rule="evenodd" d="M107.111 143.084C105.006 137.904 108.992 131.378 116.015 128.504C123.04 125.629 130.438 127.499 132.547 132.677C134.651 137.856 127.583 145.642 123.638 147.257C119.693 148.872 109.215 148.262 107.111 143.084Z" fill="#FFC6B2"/>
<path fill-rule="evenodd" clip-rule="evenodd" d="M90.6163 115.824C90.6163 115.824 87.0065 115.624 86.6058 118.037C86.2038 120.452 93.2225 120.452 95.8301 118.641L90.6163 115.824Z" fill="#FFC6B2"/>
<path fill-rule="evenodd" clip-rule="evenodd" d="M92.4214 118.037C91.7356 113.676 87.103 110.432 87.3339 106.182C89.5544 106.2 90.9804 103.441 89.97 101.082C89.5721 100.155 88.8985 99.3624 88.4679 98.4481C88.0388 97.5351 87.9247 96.3387 88.5834 95.8223C88.8957 95.5784 89.3181 95.5361 89.7228 95.4952C93.0149 95.156 98.6551 96.1466 101.685 95.0197C104.57 93.9473 107.661 91.8611 107.361 88.3155C107.098 85.2278 104.381 82.7246 101.885 80.8333C100.455 79.7486 96.3681 76.913 94.8266 77.1705C92.473 77.5629 91.9026 80.7134 91.7328 83.3501C90.0868 81.7776 87.6585 82.0297 86.2271 83.3092C84.7956 84.5887 84.1179 86.6218 83.4946 88.584C82.8698 90.5475 82.2084 92.586 80.796 93.8901C79.48 95.1055 77.398 96.0253 77.671 98.0924C77.9956 100.556 81.2034 101.432 82.6865 103.533C82.3211 103.018 82.0115 106.308 82.222 106.865C82.8549 108.545 84.4344 109.657 85.5765 110.942C88.0089 113.681 89.1986 116.439 92.4214 118.037Z" fill="#FF7B5B"/>
<path fill-rule="evenodd" clip-rule="evenodd" d="M112.587 108.064L104.363 112.332C104.363 112.332 114.242 119.526 112.587 108.064Z" fill="white"/>
<path fill-rule="evenodd" clip-rule="evenodd" d="M101.272 109.756C101.722 110.611 101.056 111.849 99.7864 112.519C98.5165 113.189 97.1231 113.04 96.6736 112.184C96.2254 111.328 96.8895 110.092 98.1594 109.42C99.4305 108.75 100.823 108.9 101.272 109.756Z" fill="#FFB2A0"/>
<path fill-rule="evenodd" clip-rule="evenodd" d="M113.282 101.525C113.731 102.38 113.066 103.618 111.796 104.288C110.526 104.959 109.133 104.809 108.683 103.953C108.235 103.097 108.899 101.86 110.169 101.189C111.44 100.519 112.832 100.669 113.282 101.525Z" fill="#FFB2A0"/>
<path fill-rule="evenodd" clip-rule="evenodd" d="M106.846 107.761C106.808 107.713 106.961 107.51 107.317 107.253C107.657 106.99 108.248 106.706 108.686 106.232C109.121 105.773 109.277 104.815 108.611 104.68C107.92 104.444 107.135 105.24 106.235 105.996C106.012 106.182 105.792 106.366 105.573 106.547C105.37 106.735 104.941 107.01 104.495 106.954C103.646 106.817 103.285 106.249 102.959 105.868C102.307 105.029 101.905 104.15 101.682 103.39C101.241 101.853 101.439 100.861 101.545 100.869C101.693 100.862 101.742 101.816 102.303 103.168C102.586 103.839 103.008 104.602 103.623 105.323C103.923 105.688 104.301 106.029 104.57 106.04C104.682 106.045 104.771 106.007 104.983 105.829C105.199 105.648 105.416 105.464 105.636 105.278C106.089 104.91 106.482 104.538 107.001 104.192C107.505 103.852 108.223 103.636 108.867 103.856C109.554 104.037 109.957 104.841 109.838 105.4C109.76 105.969 109.478 106.389 109.157 106.695C108.48 107.264 107.874 107.401 107.492 107.573C107.101 107.722 106.887 107.814 106.846 107.761Z" fill="#FF7B5B"/>
<path fill-rule="evenodd" clip-rule="evenodd" d="M104.805 123.83C104.805 123.83 110.052 123.86 112.898 122.101C112.898 122.101 110.49 125.068 105.672 125.837L104.805 123.83Z" fill="#FFA192"/>
<path fill-rule="evenodd" clip-rule="evenodd" d="M107.081 100.224C107.033 100.484 106.3 100.565 105.524 100.908C104.738 101.227 104.17 101.7 103.952 101.552C103.728 101.434 104.098 100.494 105.16 100.045C106.221 99.5943 107.15 99.9786 107.081 100.224Z" fill="#22343D"/>
<path fill-rule="evenodd" clip-rule="evenodd" d="M96.7994 106.99C96.6011 106.843 96.9121 105.996 97.6672 105.147C98.4318 104.28 99.4083 103.991 99.5115 104.234C99.6201 104.47 99.0253 105.019 98.3557 105.78C97.6753 106.539 97.0139 107.151 96.7994 106.99Z" fill="#22343D"/>
<path fill-rule="evenodd" clip-rule="evenodd" d="M92.8138 105.682C92.3887 105.366 92.0574 104.013 93.6844 102.19C95.3263 100.326 97.1611 100.654 97.3811 101.172C97.6175 101.68 97.0063 102.404 95.5654 104.043C94.1027 105.677 93.2742 106.029 92.8138 105.682Z" fill="#FF7B5B"/>
<path fill-rule="evenodd" clip-rule="evenodd" d="M101.451 98.5006C101.216 98.0591 101.475 96.7742 103.591 95.8789C105.737 94.9537 107.167 95.9743 107.146 96.5044C107.142 97.0317 106.334 97.401 104.449 98.2159C102.551 99.0157 101.705 98.9817 101.451 98.5006Z" fill="#FF7B5B"/>
<path fill-rule="evenodd" clip-rule="evenodd" d="M552.766 111.283C552.905 111.42 550.626 113.993 545.897 116.794C541.226 119.593 533.878 122.368 525.425 122.43C516.972 122.493 509.582 119.828 504.871 117.098C500.103 114.368 497.786 111.828 497.922 111.687C498.119 111.438 500.71 113.58 505.485 115.925C510.214 118.28 517.341 120.617 525.41 120.558C533.481 120.497 540.572 118.055 545.267 115.631C550.005 113.215 552.566 111.035 552.766 111.283Z" fill="#775298"/>
<path fill-rule="evenodd" clip-rule="evenodd" d="M501.198 107.396C501.069 107.681 498.546 106.631 494.295 105.68C492.176 105.178 489.605 104.791 486.742 104.434C483.868 104.115 480.692 103.862 477.337 103.622C473.981 103.386 470.77 103.115 467.852 102.753C464.935 102.364 462.314 101.902 460.155 101.316C455.819 100.181 453.364 98.8377 453.45 98.6483C453.562 98.3622 456.144 99.2465 460.437 100.022C462.579 100.432 465.163 100.75 468.041 101.037C470.926 101.301 474.112 101.518 477.472 101.755C480.834 101.995 484.052 102.304 486.966 102.724C489.879 103.183 492.492 103.717 494.63 104.399C498.923 105.714 501.294 107.218 501.198 107.396Z" fill="#775298"/>
<mask id="mask0_0:574" style="mask-type:alpha" maskUnits="userSpaceOnUse" x="433" y="35" width="170" height="84">
<path fill-rule="evenodd" clip-rule="evenodd" d="M433.032 35.2061H602.356V118.441H433.032V35.2061Z" fill="white"/>
</mask>
<g mask="url(#mask0_0:574)">
<path fill-rule="evenodd" clip-rule="evenodd" d="M450.063 52.0653C458.122 50.3497 466.472 51.8268 474.597 53.1854C482.724 54.5439 491.161 55.769 499.106 53.5806C513.45 49.6303 524.339 35.0896 539.215 35.2068C545.34 35.2545 551.113 37.8789 557.081 39.2674C564.491 40.9925 572.21 40.8072 579.716 42.0377C587.224 43.2681 594.979 46.2973 599.221 52.6322C604.255 60.1498 602.875 70.7539 597.593 78.0985C592.311 85.4445 583.853 89.9166 575.187 92.4512C569.142 94.2185 562.702 95.2405 557.471 98.7574C552.179 102.315 548.724 108.041 543.794 112.087C531.423 122.237 512.171 119.328 499.392 109.699C496.182 107.281 493.206 104.474 489.599 102.704C474.927 95.498 453.827 105.036 441.191 91.9265C428.359 78.6122 430.187 56.2949 450.063 52.0653Z" fill="#775298"/>
</g>
<path fill-rule="evenodd" clip-rule="evenodd" d="M446.037 309.916C446.037 309.916 459.479 338.825 461.052 333.472C462.62 328.117 462.102 315.261 461.26 313.425C460.414 311.59 454.919 303.481 454.919 303.481L446.037 309.916Z" fill="#FFB2A0"/>
<path fill-rule="evenodd" clip-rule="evenodd" d="M543.238 76.1516C544.482 77.7499 543.651 76.033 545.059 78.3386C550.913 78.1342 554.842 73.1647 554.842 73.1647C554.842 73.1647 564.133 73.4113 564.025 71.7462C563.919 70.0783 555.119 70.701 555.119 70.701C555.119 70.701 564.429 67.7673 563.918 66.3024C563.41 64.839 552.662 69.5074 552.662 69.5074C552.662 69.5074 563.508 62.7528 561.905 61.6695C560.304 60.5889 549.868 66.485 549.868 66.485C549.868 66.485 558.938 59.011 557.578 58.0476C556.222 57.0842 543.642 66.8121 543.642 66.8121C543.825 62.0265 540.404 62.1941 540.404 62.1941L540.545 73.8787C540.545 73.8787 542.665 75.4158 543.238 76.1516Z" fill="#FFC6B2"/>
<path fill-rule="evenodd" clip-rule="evenodd" d="M405.522 23.2674C403.533 23.6353 405.075 22.9418 402.494 23.7321C398.256 19.6769 398.818 13.3038 398.818 13.3038C398.818 13.3038 391.71 7.30005 392.888 6.12681C394.074 4.95086 400.241 11.2789 400.241 11.2789C400.241 11.2789 395.223 2.88237 396.573 2.12747C397.922 1.37257 402.872 12.0229 402.872 12.0229C402.872 12.0229 399.229 -0.253054 401.144 0.00448452C403.057 0.262023 406.96 11.621 406.96 11.621C406.96 11.621 405.124 -0.00777921 406.774 0.176177C408.427 0.35877 411.399 16.0141 411.399 16.0141C414.428 12.3132 416.874 14.7182 416.874 14.7182L409.197 23.1898C409.197 23.1898 406.436 23.0998 405.522 23.2674Z" fill="#FFC6B2"/>
<path fill-rule="evenodd" clip-rule="evenodd" d="M453.744 72.0756C451.173 71.6518 444.957 75.7969 441.847 82.5529C440.106 86.3342 438.908 90.1755 440.906 96.3251C441.847 99.218 443.817 99.5804 444.257 100.876C444.812 102.517 442.972 107.688 442.972 107.688L450.31 110.661C450.786 107.109 451.327 103.535 454.935 101.992C456.285 101.415 457.73 101.049 459.004 100.316C462.442 98.3391 464.278 94.014 465.69 90.4725C466.744 87.8277 460.19 73.1357 453.744 72.0756Z" fill="#FFC6B2"/>
<path fill-rule="evenodd" clip-rule="evenodd" d="M445.009 172.479L432.716 167.53C432.716 167.53 396.232 235.412 396.384 254.247C396.534 273.08 446.492 310.788 446.492 310.788L454.918 303.482C454.918 303.482 439.494 276.497 431.249 266.983C423.003 257.467 445.009 172.479 445.009 172.479Z" fill="#FFB2A0"/>
<path fill-rule="evenodd" clip-rule="evenodd" d="M506.049 249.807C506.049 249.807 533.144 236.909 527.7 235.769C522.255 234.636 509.521 236.199 507.768 237.191C506.012 238.184 498.404 244.336 498.404 244.336L506.049 249.807Z" fill="#FFC6B2"/>
<path fill-rule="evenodd" clip-rule="evenodd" d="M457.085 171.89L438.436 178.698C438.436 178.698 419.781 261.023 426.903 273.948C434.022 286.878 454.023 278.322 482.508 262.724L506.367 249.656L498.403 244.337C498.403 244.337 470.639 249.796 462.842 255.239C462.842 255.239 466.911 243.671 472.337 227.343C477.761 211.013 481.503 194.344 457.085 171.89Z" fill="#FFC6B2"/>
<path fill-rule="evenodd" clip-rule="evenodd" d="M434.13 115.804C434.13 110.335 435.885 106.379 441.336 106.379C446.788 106.379 454.324 108.296 454.324 113.767C454.324 119.24 450.028 128.123 444.574 128.123C439.123 128.123 434.13 121.277 434.13 115.804Z" fill="#FFC6B2"/>
<path fill-rule="evenodd" clip-rule="evenodd" d="M438.435 105.595C438.435 105.595 421.483 87.1886 418.092 69.1568C414.699 51.1278 408.938 21.8706 408.938 21.8706L402.495 23.732C402.495 23.732 399.442 63.7158 402.495 69.8382C405.546 75.9619 420.456 116.729 424.997 127.435L438.435 105.595Z" fill="#FFC6B2"/>
<path fill-rule="evenodd" clip-rule="evenodd" d="M456.648 119.941C456.648 119.941 457.951 114.215 479.388 106.433C500.824 98.6523 541.266 73.4313 541.266 73.4313L545.301 78.0629C545.301 78.0629 523.327 103.529 510.543 107.996C497.759 112.464 470.606 130.076 467.813 131.485C463.588 133.618 463.639 136.301 456.648 119.941Z" fill="#FFC6B2"/>
<path fill-rule="evenodd" clip-rule="evenodd" d="M438.435 105.595C438.435 105.595 421.211 111.196 421.211 137.491C421.211 137.491 421.222 173.504 425.282 180.055C425.282 180.055 431.881 181.752 440.108 180.055C448.735 178.276 457.084 171.89 457.084 171.89L470.633 131.081L469.013 111.96L450.591 108.391C450.591 108.391 455.876 133.168 436.756 122.517C433.041 120.447 442.223 106.39 442.223 106.39L438.435 105.595Z" fill="#22343D"/>
<path fill-rule="evenodd" clip-rule="evenodd" d="M423.862 126.981L415.375 109.241C415.375 109.241 416.592 98.4786 432.172 94.6223C432.172 94.6223 433.748 100.047 435.475 102.12C437.201 104.191 442.229 106.396 442.229 106.396L423.862 126.981Z" fill="#22343D"/>
<path fill-rule="evenodd" clip-rule="evenodd" d="M455.947 134.112L482.934 128.562C482.934 128.562 487.626 118.808 476.501 107.205C476.501 107.205 455.45 108.48 452.726 108.708C450.044 108.931 451.885 111.004 451.885 111.004L455.947 134.112Z" fill="#22343D"/>
<path fill-rule="evenodd" clip-rule="evenodd" d="M425.239 171.283C425.239 171.283 399.713 218.634 395.496 227.094C395.496 227.094 470.802 261.802 501.371 220.025C501.371 220.025 483.982 183.097 457.1 169.039L445.503 165.555L425.692 171.056" fill="#22343D"/>
<path fill-rule="evenodd" clip-rule="evenodd" d="M464.702 90.0249C464.702 90.0249 467.61 87.1074 469.398 89.1269C471.187 91.1463 462.913 94.0637 462.913 94.0637L464.702 90.0249Z" fill="#FFC6B2"/>
<path fill-rule="evenodd" clip-rule="evenodd" d="M517.888 50.2361C517.916 50.337 516.793 50.8248 514.649 51.3358C512.51 51.8522 509.336 52.321 505.393 52.4014C501.453 52.4804 496.768 52.1288 491.64 51.4312C486.507 50.7485 480.932 49.7456 475.067 49.1038C469.211 48.4756 463.58 48.3611 458.593 49.1692C453.605 49.9636 449.287 51.6029 445.987 53.5174C442.687 55.4469 440.39 57.5876 438.98 59.2077C437.563 60.8293 436.924 61.8649 436.78 61.7777C436.702 61.7368 437.128 60.5704 438.413 58.7526C439.689 56.9403 441.942 54.5489 445.302 52.3864C448.66 50.2375 453.122 48.3911 458.308 47.4673C463.5 46.5298 469.307 46.602 475.265 47.2424C481.228 47.8951 486.81 48.9553 491.883 49.7238C496.954 50.5073 501.538 50.9869 505.397 51.0769C513.134 51.2935 517.817 49.9159 517.888 50.2361Z" fill="#775298"/>
<path fill-rule="evenodd" clip-rule="evenodd" d="M449.895 88.3687C449.887 88.4832 449.058 88.5636 447.794 88.1425C447.481 88.0322 447.112 87.8877 446.768 87.5716C446.599 87.4135 446.441 87.2037 446.345 86.9516C446.206 86.5987 446.217 86.198 446.354 85.8928C446.395 85.8315 446.392 85.6857 446.472 85.683L446.718 85.6748C446.876 85.653 447.062 85.7048 447.244 85.7388C447.578 85.8029 447.685 85.7933 447.923 85.8097C448.34 85.8192 448.772 85.7756 449.203 85.6802C450.969 85.3069 452.151 84.0178 452.68 82.9577C453.236 81.8908 453.285 81.0882 453.433 81.0977C453.537 81.0841 453.744 81.9371 453.285 83.2248C453.051 83.8557 452.645 84.5792 451.989 85.2142C451.337 85.8478 450.434 86.3684 449.409 86.5932C448.897 86.7077 448.382 86.7513 447.886 86.7254C447.67 86.7145 447.331 86.6709 447.231 86.6491C447.14 86.6341 447.151 86.6137 447.134 86.6246C447.123 86.6355 447.117 86.6532 447.119 86.6791C447.155 86.8017 447.222 86.9189 447.316 87.0238C447.504 87.2377 447.779 87.3972 448.046 87.5307C449.14 88.0689 449.915 88.2284 449.895 88.3687Z" fill="#FF7B5B"/>
<path fill-rule="evenodd" clip-rule="evenodd" d="M443.841 88.6841L453.782 92.6139C453.782 92.6139 445.046 98.6586 443.841 88.6841Z" fill="white"/>
<path fill-rule="evenodd" clip-rule="evenodd" d="M458.028 90.5751C457.675 91.2482 456.58 91.3654 455.582 90.8381C454.583 90.3121 454.061 89.3391 454.412 88.6674C454.765 87.9942 455.861 87.8757 456.86 88.403C457.858 88.9304 458.381 89.9019 458.028 90.5751Z" fill="#FFB2A0"/>
<path fill-rule="evenodd" clip-rule="evenodd" d="M446.933 84.6726C446.631 85.3703 445.549 85.572 444.514 85.1223C443.479 84.6726 442.883 83.7433 443.184 83.0456C443.484 82.348 444.568 82.1463 445.603 82.596C446.638 83.0456 447.234 83.975 446.933 84.6726Z" fill="#FFB2A0"/>
<path fill-rule="evenodd" clip-rule="evenodd" d="M443.25 99.6232C443.25 99.6232 446.735 102.551 450.371 101.609C450.371 101.609 449.117 103.494 444.292 102.802C444.292 102.802 444.692 100.724 443.25 99.6232Z" fill="#FFA192"/>
<path fill-rule="evenodd" clip-rule="evenodd" d="M457.074 84.3107C457.074 84.7468 456.721 85.101 456.286 85.101C455.852 85.101 455.499 84.7468 455.499 84.3107C455.499 83.8747 455.852 83.5204 456.286 83.5204C456.721 83.5204 457.074 83.8747 457.074 84.3107Z" fill="#22343D"/>
<path fill-rule="evenodd" clip-rule="evenodd" d="M450.628 81.9814C450.628 82.4174 450.275 82.7717 449.841 82.7717C449.406 82.7717 449.054 82.4174 449.054 81.9814C449.054 81.5453 449.406 81.191 449.841 81.191C450.275 81.191 450.628 81.5453 450.628 81.9814Z" fill="#22343D"/>
<path fill-rule="evenodd" clip-rule="evenodd" d="M459.604 82.2056C459.361 82.3091 458.891 81.7382 458.18 81.2762C457.483 80.7939 456.777 80.5772 456.778 80.3129C456.755 80.0594 457.741 79.8536 458.699 80.4982C459.657 81.1386 459.848 82.1292 459.604 82.2056Z" fill="#775298"/>
<path fill-rule="evenodd" clip-rule="evenodd" d="M448.245 78.3712C448.229 78.1245 449.075 77.8139 450.207 77.8438C451.36 77.8684 452.212 78.4298 452.094 78.6641C451.985 78.9012 451.183 78.799 450.171 78.78C449.154 78.75 448.261 78.6396 448.245 78.3712Z" fill="#775298"/>
<path fill-rule="evenodd" clip-rule="evenodd" d="M451.795 321.663C451.795 321.663 455.93 336.39 460.2 335.184C464.47 333.979 461.259 313.425 461.259 313.425L456.999 306.669C456.999 306.669 461.001 341.075 451.795 321.663Z" fill="#22343D"/>
<path fill-rule="evenodd" clip-rule="evenodd" d="M503.941 240.015C503.941 240.015 506.948 236.723 510.593 236.175C514.24 235.626 527.271 234.071 529.184 235.808C531.099 237.546 518.622 243.371 518.622 243.371C518.622 243.371 522.97 240.591 521.165 239.558C517.975 237.728 503.941 240.015 503.941 240.015Z" fill="#22343D"/>
<path fill-rule="evenodd" clip-rule="evenodd" d="M498.771 243.958L502.851 252.268L505.076 251.028L499.636 242.842L498.771 243.958Z" fill="#22343D"/>
<path fill-rule="evenodd" clip-rule="evenodd" d="M453.15 300.149L443.135 309.205L446.103 311.686L454.51 302.506L453.15 300.149Z" fill="#22343D"/>
<path fill-rule="evenodd" clip-rule="evenodd" d="M243.778 209.994C240.93 202.902 239.835 195.007 235.586 188.661C229.47 179.53 217.724 175 212.762 165.189C210.654 161.022 209.992 156.255 209.971 151.583C209.93 142.339 212.688 132.511 219.805 126.637C227.982 119.886 240.251 119.98 249.828 124.515C259.403 129.05 266.719 137.282 272.939 145.88C279.161 154.477 284.607 163.703 291.851 171.451C297.222 177.196 303.593 182.151 307.639 188.9C318.731 207.403 307.318 230.815 287.737 237.493C270.531 243.359 249.731 224.819 243.778 209.994Z" fill="#22343D"/>
<path fill-rule="evenodd" clip-rule="evenodd" d="M219.266 340.493C220.969 341.898 219.112 340.925 221.589 342.544C221.036 348.754 215.312 352.666 215.312 352.666C215.312 352.666 215.07 362.552 213.231 362.349C211.388 362.148 212.568 352.829 212.568 352.829C212.568 352.829 208.799 362.567 207.205 361.947C205.612 361.329 211.381 350.156 211.381 350.156C211.381 350.156 203.295 361.323 202.184 359.562C201.075 357.803 208.19 347.027 208.19 347.027C208.19 347.027 199.404 356.269 198.411 354.772C197.42 353.28 208.896 340.428 208.896 340.428C203.584 340.369 203.961 336.742 203.961 336.742L216.898 337.512C216.898 337.512 218.483 339.845 219.266 340.493Z" fill="#FFC6B2"/>
<path fill-rule="evenodd" clip-rule="evenodd" d="M342.86 154.045C345.074 154.435 343.356 153.699 346.228 154.537C350.946 150.237 350.32 143.48 350.32 143.48C350.32 143.48 358.233 137.113 356.921 135.869C355.601 134.622 348.737 141.331 348.737 141.331C348.737 141.331 354.321 132.429 352.819 131.627C351.32 130.827 345.81 142.121 345.81 142.121C345.81 142.121 349.864 129.104 347.732 129.376C345.605 129.65 341.26 141.695 341.26 141.695C341.26 141.695 343.303 129.364 341.466 129.559C339.627 129.752 336.652 145.906 336.652 145.906C332.32 142.369 329.287 144.634 329.287 144.634L338.77 153.962C338.77 153.962 341.843 153.868 342.86 154.045Z" fill="#FFC6B2"/>
<path fill-rule="evenodd" clip-rule="evenodd" d="M288.699 208.036C292.701 207.409 304.907 215.345 301.801 231.461C301.541 232.814 299.78 235.793 299.341 237.025C298.787 238.585 303.105 244.296 303.105 244.296L291.959 247.869C291.483 244.491 292.283 239.554 288.681 238.086C287.334 237.537 285.892 237.19 284.621 236.493C281.189 234.613 279.357 230.499 277.947 227.132C276.894 224.615 276.093 221.909 276.123 219.178C276.196 212.302 282.266 209.044 288.699 208.036Z" fill="#FFC6B2"/>
<path fill-rule="evenodd" clip-rule="evenodd" d="M311.019 252.173C311.019 246.373 309.186 244.158 303.118 244.158C297.05 244.158 289.039 246.373 289.039 252.173C289.039 257.975 293.324 265.236 299.395 265.236C305.462 265.236 311.019 257.975 311.019 252.173Z" fill="#FFC6B2"/>
<path fill-rule="evenodd" clip-rule="evenodd" d="M306.227 241.347C306.227 241.347 325.095 221.828 328.87 202.708C332.645 183.589 339.058 152.564 339.058 152.564L346.229 154.537C346.229 154.537 349.627 196.937 346.229 203.43C342.834 209.924 323.585 255.018 323.963 266.561L306.227 241.347Z" fill="#FFC6B2"/>
<path fill-rule="evenodd" clip-rule="evenodd" d="M272.593 250.797C272.593 250.797 266.178 251.879 256.365 274.247C246.553 296.613 216.362 338.253 216.362 338.253L221.269 342.786C221.269 342.786 250.705 320.782 256.365 307.435C262.025 294.088 269.195 277.494 272.593 278.214C275.989 278.937 290.33 259.093 272.593 250.797Z" fill="#FFC6B2"/>
<path fill-rule="evenodd" clip-rule="evenodd" d="M323.108 269.543L331.894 245.213C331.894 245.213 330.538 233.802 313.198 229.712L303.375 243.912L323.108 269.543Z" fill="#FF7B5B"/>
<path fill-rule="evenodd" clip-rule="evenodd" d="M275.522 248.93C275.522 248.93 265.157 249.807 256.756 268.321C256.756 268.321 265.995 281.119 272.755 281.551C272.755 281.551 297.859 260.021 275.522 248.93Z" fill="#FF7B5B"/>
<path fill-rule="evenodd" clip-rule="evenodd" d="M304.002 468.488C304.002 468.488 289.039 499.143 287.29 493.468C285.544 487.79 286.121 474.155 287.058 472.209C287.999 470.262 294.116 461.664 294.116 461.664L304.002 468.488Z" fill="#FFC6B2"/>
<path fill-rule="evenodd" clip-rule="evenodd" d="M305.145 322.747L318.828 317.498C318.828 317.498 359.435 389.484 359.267 409.456C359.098 429.425 303.495 469.413 303.495 469.413L294.116 461.664C294.116 461.664 320.471 422.785 329.648 412.696C334.237 407.65 301.384 382.924 296.408 359.132C291.432 335.341 305.145 322.747 305.145 322.747Z" fill="#654287"/>
<path fill-rule="evenodd" clip-rule="evenodd" d="M222.876 452.429C222.876 452.429 194.888 473.128 196.052 467.319C197.22 461.504 204.266 449.638 206.033 448.318C207.802 447 217.358 442.035 217.358 442.035L222.876 452.429Z" fill="#FFC6B2"/>
<path fill-rule="evenodd" clip-rule="evenodd" d="M267.918 348.238L308.4 324.698C308.4 324.698 310.007 406.468 300.288 424.148C290.571 441.828 221.982 453.029 221.982 453.029L217.358 442.035C217.358 442.035 259.674 416.739 272.666 411.789C285.659 406.835 267.918 348.238 267.918 348.238Z" fill="#775298"/>
<path fill-rule="evenodd" clip-rule="evenodd" d="M292.027 308.596C292.027 308.596 262.22 319.185 267.918 348.238C273.615 377.29 283.113 382.736 283.113 382.736L300.207 354.594L317.37 317.738L300.207 315.554L292.027 308.596Z" fill="#775298"/>
<path fill-rule="evenodd" clip-rule="evenodd" d="M306.227 241.347C306.227 241.347 328.173 253.687 328.173 281.57C328.173 281.57 325.385 313.359 320.866 320.305C320.866 320.305 313.521 322.105 304.364 320.305C294.762 318.419 285.47 311.648 285.47 311.648L277.97 272.728L272.136 250.004L275.299 248.957L291.804 247.138C291.804 247.138 289.433 271.875 307.862 259.591C311.744 257.003 303.03 244.105 303.03 244.105L306.227 241.347Z" fill="#FF7B5B"/>
<path fill-rule="evenodd" clip-rule="evenodd" d="M319.66 135.979L365.672 162.91L391.555 113.857L348.418 89.8124L319.66 135.979Z" fill="white"/>
<path fill-rule="evenodd" clip-rule="evenodd" d="M383.671 370.787L416.579 350.347L389.391 302.732L359.309 322.304L383.671 370.787Z" fill="white"/>
<path fill-rule="evenodd" clip-rule="evenodd" d="M221.64 167.891C221.727 167.813 222.743 168.738 224.35 170.626C225.95 172.516 228.132 175.389 230.323 179.267C232.522 183.129 234.697 188.029 236.251 193.717C237.859 199.362 238.937 205.708 241.409 211.821C242.692 214.84 244.247 217.652 246.099 220.137C247.966 222.606 250.037 224.773 252.169 226.663C256.526 230.342 261.091 232.872 265.158 234.334C269.222 235.817 272.703 236.482 275.123 236.72C277.54 236.989 278.906 237.028 278.908 237.188C278.915 237.287 277.552 237.496 275.07 237.448C272.588 237.429 268.977 236.953 264.724 235.585C260.467 234.236 255.658 231.74 251.06 227.98C248.804 226.048 246.612 223.811 244.637 221.239C242.679 218.653 241.025 215.696 239.682 212.531C237.107 206.141 236.089 199.74 234.591 194.169C233.161 188.58 231.173 183.77 229.163 179.9C227.165 176.019 225.182 173.077 223.777 171.071C222.363 169.069 221.534 167.985 221.64 167.891Z" fill="#22343D"/>
<path fill-rule="evenodd" clip-rule="evenodd" d="M278.172 136.383C278.51 136.331 278.839 140.876 281.373 147.598C282.638 150.946 284.521 154.798 287.225 158.659C288.576 160.593 290.131 162.498 291.891 164.396C293.639 166.302 295.543 168.239 297.343 170.411C300.951 174.794 303.434 179.532 305.771 183.714C308.092 187.937 309.941 191.954 310.88 195.547C311.861 199.13 311.918 202.213 311.607 204.259C311.282 206.314 310.773 207.355 310.689 207.326C310.527 207.284 310.791 206.184 310.883 204.193C310.963 202.205 310.711 199.308 309.615 195.922C308.555 192.522 306.65 188.691 304.272 184.558C301.857 180.426 299.353 175.784 295.906 171.606C294.176 169.516 292.299 167.586 290.54 165.632C288.772 163.688 287.164 161.663 285.807 159.636C283.085 155.58 281.268 151.537 280.13 148.042C278.966 144.548 278.47 141.599 278.236 139.567C278.003 137.532 278.066 136.393 278.172 136.383Z" fill="#22343D"/>
<path fill-rule="evenodd" clip-rule="evenodd" d="M292.278 225.553C292.26 225.422 293.01 225.303 293.718 224.469C293.88 224.276 294.045 223.996 294.042 223.832C294.038 223.656 293.916 223.351 293.705 223.175C293.487 222.979 293.244 222.884 292.923 222.917C292.592 222.941 292.188 223.106 291.661 223.185C290.507 223.339 289.607 222.685 289.014 222.155C288.406 221.598 287.941 221.032 287.595 220.525C286.905 219.504 286.691 218.767 286.797 218.713C286.919 218.647 287.334 219.258 288.113 220.114C288.501 220.539 288.991 221.027 289.57 221.497C290.14 221.953 290.838 222.369 291.535 222.258C291.904 222.211 292.335 222.038 292.859 222.002C293.393 221.949 293.986 222.196 294.312 222.564C294.659 222.94 294.853 223.383 294.812 223.907C294.709 224.444 294.425 224.695 294.19 224.929C293.176 225.82 292.245 225.675 292.278 225.553Z" fill="#FF7B5B"/>
<path fill-rule="evenodd" clip-rule="evenodd" d="M297.716 226.321L288.879 229.545C288.879 229.545 296.377 236.127 297.716 226.321Z" fill="white"/>
<path fill-rule="evenodd" clip-rule="evenodd" d="M287.997 225.772C288.35 226.445 287.827 227.418 286.829 227.944C285.831 228.472 284.736 228.354 284.383 227.681C284.03 227.01 284.553 226.037 285.551 225.509C286.549 224.982 287.644 225.099 287.997 225.772Z" fill="#FFB2A0"/>
<path fill-rule="evenodd" clip-rule="evenodd" d="M298.473 220.382C298.762 221.085 298.151 222.004 297.11 222.436C296.066 222.869 294.987 222.65 294.698 221.947C294.408 221.243 295.019 220.325 296.062 219.893C297.104 219.461 298.184 219.679 298.473 220.382Z" fill="#FFB2A0"/>
<path fill-rule="evenodd" clip-rule="evenodd" d="M289.14 238.322C289.14 238.322 292.097 238.926 295.865 237.981C295.865 237.981 294.007 239.792 290.972 240.213C290.972 240.213 290.292 238.952 289.14 238.322Z" fill="#FFA192"/>
<path fill-rule="evenodd" clip-rule="evenodd" d="M292.161 218.392C292.492 218.674 292.533 219.172 292.252 219.505C291.97 219.837 291.475 219.878 291.142 219.596C290.811 219.315 290.77 218.817 291.051 218.483C291.332 218.15 291.829 218.11 292.161 218.392Z" fill="#22343D"/>
<path fill-rule="evenodd" clip-rule="evenodd" d="M286.222 221.819C286.554 222.101 286.594 222.6 286.313 222.933C286.033 223.265 285.536 223.306 285.204 223.024C284.872 222.742 284.831 222.245 285.113 221.911C285.394 221.578 285.891 221.537 286.222 221.819Z" fill="#22343D"/>
<path fill-rule="evenodd" clip-rule="evenodd" d="M292.196 215.093C292.117 215.347 291.38 215.337 290.569 215.584C289.751 215.805 289.131 216.205 288.93 216.032C288.722 215.888 289.203 214.999 290.312 214.683C291.419 214.363 292.295 214.859 292.196 215.093Z" fill="#22343D"/>
<path fill-rule="evenodd" clip-rule="evenodd" d="M281.937 221.31C281.739 221.163 282.05 220.315 282.805 219.468C283.568 218.601 284.546 218.312 284.648 218.553C284.758 218.789 284.162 219.338 283.492 220.1C282.813 220.859 282.152 221.472 281.937 221.31Z" fill="#22343D"/>
<path fill-rule="evenodd" clip-rule="evenodd" d="M278.604 227.893C278.604 227.893 275.77 225.505 274.409 227.666C273.049 229.827 280.531 230.965 280.531 230.965L278.604 227.893Z" fill="#FFC6B2"/>
<path fill-rule="evenodd" clip-rule="evenodd" d="M210.452 445.703C210.452 445.703 206.388 447.475 205.329 448.54C204.268 449.602 194.551 466.442 195.788 468.569C197.026 470.696 206.77 463.475 206.77 463.475C206.77 463.475 198.616 465.025 210.452 445.703Z" fill="#775298"/>
<path fill-rule="evenodd" clip-rule="evenodd" d="M289.745 467.97C289.745 467.97 286.859 471.1 286.413 472.538C285.968 473.973 285.171 493.415 287.253 494.72C289.333 496.027 295.021 485.299 295.021 485.299C295.021 485.299 288.221 490.643 289.745 468.015" fill="#775298"/>
</svg>
